<svg width="289" height="304" viewBox="0 0 289 304" fill="none" xmlns="http://www.w3.org/2000/svg">
<path d="M272.092 203.616L272.144 201.957L285.477 202.369L285.208 211.105L283.728 211.059L283.947 203.983L279.649 203.85L279.435 210.787L277.955 210.741L278.17 203.804L272.092 203.616Z" fill="#7E87A5"/>
<path d="M270.939 218.743C271.299 215.162 273.612 213.545 276.876 213.873L284.995 214.69L284.827 216.361L276.748 215.549C274.32 215.305 272.658 216.444 272.411 218.892C272.165 221.339 273.565 222.807 275.993 223.051L284.072 223.864L283.904 225.535L275.805 224.721C272.502 224.388 270.577 222.345 270.939 218.743Z" fill="#7E87A5"/>
<path d="M269.316 232.257L269.596 230.62L281.286 232.619L281.998 228.459L283.456 228.709L281.751 238.684L280.292 238.435L281.007 234.255L269.316 232.257Z" fill="#7E87A5"/>
<path d="M266.511 244.359C267.373 240.864 269.891 239.59 273.076 240.375L280.998 242.33L280.596 243.961L272.712 242.016C270.343 241.431 268.537 242.325 267.948 244.713C267.358 247.102 268.538 248.752 270.907 249.336L278.79 251.281L278.388 252.912L270.485 250.963C267.261 250.168 265.644 247.873 266.511 244.359Z" fill="#7E87A5"/>
<path d="M261.33 262.543L261.942 260.681L268.032 259.125L268.869 256.579L263.834 254.924L264.352 253.347L277.025 257.513L275.351 262.605C274.59 264.923 272.558 266.108 270.221 265.34C267.941 264.59 267.205 262.601 267.622 260.822L261.33 262.543ZM269.163 260.36C268.67 261.861 269.333 263.237 270.758 263.706C272.202 264.18 273.515 263.454 274.008 261.953L275.101 258.628L270.256 257.035L269.163 260.36Z" fill="#7E87A5"/>
<path d="M257.161 273.047L260.414 264.935L272.796 269.901L269.542 278.013L268.168 277.462L270.804 270.891L266.813 269.29L264.229 275.731L262.856 275.181L265.439 268.739L261.17 267.027L258.534 273.598L257.161 273.047Z" fill="#7E87A5"/>
<path d="M252.199 283.469L252.941 281.984L264.874 287.946L264.132 289.431L252.199 283.469Z" fill="#7E87A5"/>
<path d="M248.589 289.707C249.715 287.702 251.324 286.633 252.944 286.28L253.57 287.779C252.277 288.039 250.77 288.845 249.85 290.484C248.685 292.559 249.429 293.849 250.336 294.358C253.336 296.042 255.529 288.213 259.679 290.543C261.598 291.619 261.964 294.073 260.672 296.375C259.683 298.136 258.299 299.171 256.722 299.571L256.148 298.101C257.614 297.778 258.718 296.792 259.432 295.518C260.206 294.141 260.024 292.708 258.925 292.091C256.309 290.623 253.942 298.354 249.599 295.916C247.925 294.977 246.827 292.847 248.589 289.707Z" fill="#7E87A5"/>
<path d="M234.891 311.234L235.853 309.881L240.841 313.426L245.36 307.069L240.372 303.523L241.333 302.17L252.206 309.899L251.245 311.252L246.566 307.926L242.047 314.284L246.726 317.609L245.764 318.962L234.891 311.234Z" fill="#7E87A5"/>
<path d="M1.9529 37.7585C-1.23089 39.4388 -3.85702 38.405 -5.38798 35.5042L-9.19671 28.2877L-7.71094 27.5035L-3.92088 34.6847C-2.782 36.8426 -0.913491 37.5978 1.2621 36.4496C3.43769 35.3014 3.88627 33.3233 2.74739 31.1654L-1.04267 23.9842L0.443095 23.2L4.24249 30.3989C5.79212 33.3351 5.15438 36.0688 1.9529 37.7585Z" fill="#7E87A5"/>
<path d="M18.8315 29.5363L17.035 30.32L11.8178 26.8136L9.36132 27.8851L11.4805 32.743L9.95894 33.4068L4.62508 21.1795L9.53798 19.0364C11.7745 18.0608 14.0114 18.7869 14.995 21.0417C15.9546 23.2415 14.9609 25.1152 13.3567 25.9895L18.8315 29.5363ZM11.9856 25.1475C13.4338 24.5157 14.0182 23.1043 13.4185 21.7295C12.8107 20.3362 11.3946 19.8412 9.94643 20.4729L6.73838 21.8723L8.77756 26.5469L11.9856 25.1475Z" fill="#7E87A5"/>
<path d="M30.0625 25.4026L21.8344 28.3497L17.3362 15.791L25.5643 12.8439L26.0633 14.2372L19.398 16.6246L20.848 20.6728L27.3815 18.3326L27.8806 19.7259L21.347 22.0661L22.8981 26.3967L29.5635 24.0093L30.0625 25.4026Z" fill="#7E87A5"/>
<path d="M40.7491 22.2615L39.1469 22.6957L35.6577 9.82011L37.2599 9.38592L40.7491 22.2615Z" fill="#7E87A5"/>
<path d="M47.6494 20.8168C45.4025 21.308 43.5342 20.8156 42.1948 19.8391L42.8984 18.375C43.9521 19.1683 45.5554 19.7596 47.392 19.3582C49.7171 18.8499 50.1863 17.4372 49.9642 16.4212C49.2296 13.0605 41.9218 16.6232 40.9054 11.973C40.4356 9.82371 42.0258 7.92024 44.6049 7.35649C46.5783 6.92514 48.2713 7.27161 49.6175 8.18522L48.9011 9.59062C47.685 8.71 46.2148 8.54002 44.7884 8.85179C43.2449 9.18918 42.2953 10.2771 42.5643 11.508C43.205 14.4388 50.5555 11.0715 51.6189 15.9366C52.0289 17.8124 51.1664 20.0481 47.6494 20.8168Z" fill="#7E87A5"/>
<path d="M73.3243 16.6219L71.6739 16.8007L71.0146 10.7163L63.26 11.5566L63.9193 17.641L62.269 17.8199L60.8319 4.5575L62.4822 4.37866L63.1006 10.0853L70.8552 9.24496L70.2368 3.53836L71.8871 3.35953L73.3243 16.6219Z" fill="#7E87A5"/>
<path d="M85.0039 16.0926L76.2704 16.4299L75.7557 3.09979L84.4892 2.76257L84.5463 4.24147L77.4716 4.51464L77.6375 8.81144L84.5723 8.54367L84.6294 10.0226L77.6946 10.2903L77.8721 14.8869L84.9468 14.6137L85.0039 16.0926Z" fill="#7E87A5"/>
<path d="M98.7508 16.3519L96.7917 16.2914L93.5769 10.8896L90.8982 10.8068L90.7346 16.1043L89.0754 16.0531L89.4872 2.71943L94.8446 2.88491C97.2835 2.96023 98.9945 4.57382 98.9185 7.03265C98.8444 9.43151 97.1445 10.6996 95.3204 10.8034L98.7508 16.3519ZM94.4416 9.4556C96.0208 9.50437 97.153 8.47884 97.1994 6.97955C97.2463 5.46028 96.1783 4.4068 94.599 4.35803L91.1007 4.24997L90.9433 9.34754L94.4416 9.4556Z" fill="#7E87A5"/>
<path d="M110.408 17.3972L101.708 16.5559L102.992 3.27787L111.692 4.11909L111.549 5.59222L104.502 4.91078L104.088 9.19081L110.996 9.85878L110.853 11.3319L103.946 10.6639L103.503 15.2426L110.55 15.924L110.408 17.3972Z" fill="#7E87A5"/>
<path d="M131.233 15.258C130.582 18.4726 127.447 20.5514 124.232 19.8999C121.017 19.2485 118.939 16.1132 119.59 12.8986C120.241 9.6839 123.377 7.60518 126.591 8.2566C129.806 8.90802 131.885 12.0433 131.233 15.258Z" fill="#7E87A5"/>
<path d="M140.6 23.6884L139.015 23.1939L142.989 10.4595L151.332 13.0632L150.891 14.476L144.133 12.3669L142.852 16.4716L149.477 18.539L149.036 19.9518L142.411 17.8844L140.6 23.6884Z" fill="#7E87A5"/>
<path d="M154.981 28.8968C151.63 27.5817 150.699 24.9175 151.897 21.8641L154.878 14.2681L156.442 14.8818L153.475 22.4406C152.584 24.712 153.232 26.6205 155.522 27.5191C157.812 28.4178 159.603 27.4664 160.494 25.1951L163.461 17.6363L165.025 18.25L162.051 25.8274C160.838 28.9179 158.351 30.2192 154.981 28.8968Z" fill="#7E87A5"/>
<path d="M167.629 34.1329L166.131 33.4185L171.234 22.7128L167.425 20.8968L168.062 19.5609L177.197 23.9157L176.56 25.2516L172.733 23.4271L167.629 34.1329Z" fill="#7E87A5"/>
<path d="M178.087 39.8478C174.954 38.0742 174.407 35.3054 176.023 32.4511L180.043 25.3501L181.505 26.1778L177.505 33.244C176.303 35.3673 176.675 37.3479 178.816 38.5599C180.957 39.7719 182.864 39.0821 184.066 36.9588L188.067 29.8926L189.529 30.7203L185.518 37.8039C183.883 40.693 181.237 41.6313 178.087 39.8478Z" fill="#7E87A5"/>
<path d="M194.023 49.559L192.393 48.4708L192.524 42.1861L190.295 40.698L187.353 45.106L185.972 44.1843L193.379 33.0896L197.837 36.0657C199.866 37.4205 200.464 39.6951 199.098 41.7411C197.765 43.7371 195.652 43.9133 194.049 43.0358L194.023 49.559ZM194.017 41.4271C195.331 42.3044 196.835 42.0336 197.667 40.7861C198.511 39.5219 198.163 38.0628 196.849 37.1855L193.938 35.2422L191.106 39.4838L194.017 41.4271Z" fill="#7E87A5"/>
<path d="M203.325 56.5795L196.39 51.2593L204.511 40.6755L211.445 45.9957L210.544 47.1699L204.927 42.8602L202.309 46.2718L207.816 50.4962L206.915 51.6705L201.408 47.446L198.608 51.0956L204.226 55.4053L203.325 56.5795Z" fill="#7E87A5"/>
<path d="M212.24 64.2829L211.008 63.1703L219.949 53.27L221.181 54.3826L212.24 64.2829Z" fill="#7E87A5"/>
<path d="M217.699 69.8255C216.073 68.1991 215.479 66.3607 215.578 64.706L217.19 64.508C217.091 65.8233 217.459 67.492 218.788 68.8214C220.471 70.5043 221.913 70.1366 222.649 69.4012C225.081 66.9688 218.138 62.7403 221.503 59.3744C223.059 57.8188 225.52 58.1299 227.386 59.9967C228.815 61.425 229.437 63.0373 229.395 64.6636L227.825 64.8192C227.91 63.3201 227.259 61.9907 226.227 60.9584C225.11 59.8411 223.681 59.629 222.79 60.52C220.669 62.6413 227.471 67.0112 223.95 70.5326C222.592 71.8902 220.245 72.3711 217.699 69.8255Z" fill="#7E87A5"/>
<path d="M234.131 88.0201L233.082 86.7331L237.827 82.8678L232.901 76.8204L228.156 80.6857L227.108 79.3986L237.45 70.9733L238.499 72.2604L234.048 75.8856L238.975 81.9331L243.425 78.3078L244.474 79.5948L234.131 88.0201Z" fill="#7E87A5"/>
<path d="M241.562 98.4439L236.551 91.2833L247.481 83.6345L252.492 90.7951L251.279 91.6437L247.22 85.8431L243.697 88.3086L247.676 93.9945L246.464 94.8431L242.484 89.1572L238.716 91.7947L242.775 97.5953L241.562 98.4439Z" fill="#7E87A5"/>
<path d="M248.25 109.285L247.234 107.609L250.016 101.972L248.628 99.6795L244.095 102.425L243.235 101.006L254.645 94.0942L257.422 98.6787C258.686 100.766 258.263 103.079 256.159 104.354C254.106 105.597 252.117 104.861 251.038 103.388L248.25 109.285ZM251.69 101.917C252.509 103.268 253.985 103.66 255.268 102.883C256.568 102.095 256.871 100.626 256.052 99.2745L254.239 96.2808L249.877 98.9231L251.69 101.917Z" fill="#7E87A5"/>
<path d="M253.249 118.752L249.198 111.007L261.019 104.825L265.07 112.569L263.758 113.255L260.477 106.982L256.667 108.975L259.883 115.124L258.572 115.81L255.355 109.66L251.279 111.792L254.561 118.066L253.249 118.752Z" fill="#7E87A5"/>
<path d="M266.441 135.06C263.392 136.27 259.939 134.778 258.729 131.73C257.52 128.681 259.011 125.227 262.06 124.018C265.109 122.808 268.562 124.299 269.772 127.348C270.981 130.397 269.49 133.851 266.441 135.06Z" fill="#7E87A5"/>
<path d="M264.731 148.297L264.285 146.698L277.134 143.111L279.484 151.53L278.058 151.927L276.155 145.108L272.013 146.264L273.879 152.949L272.453 153.347L270.587 146.662L264.731 148.297Z" fill="#7E87A5"/>
<path d="M268.037 162.583C267.309 159.058 269.032 156.823 272.244 156.159L280.236 154.508L280.575 156.153L272.623 157.796C270.234 158.29 268.989 159.875 269.487 162.284C269.984 164.693 271.76 165.674 274.149 165.18L282.101 163.537L282.441 165.183L274.469 166.83C271.218 167.502 268.77 166.129 268.037 162.583Z" fill="#7E87A5"/>
<path d="M270.624 176.596L270.408 174.95L282.166 173.401L281.615 169.217L283.082 169.024L284.404 179.057L282.937 179.25L282.383 175.046L270.624 176.596Z" fill="#7E87A5"/>
<path d="M271.513 188.542C271.291 184.949 273.313 182.98 276.587 182.778L284.731 182.275L284.835 183.951L276.731 184.452C274.295 184.603 272.838 185.995 272.99 188.451C273.142 190.906 274.76 192.129 277.196 191.978L285.3 191.477L285.404 193.154L277.279 193.656C273.966 193.861 271.736 192.155 271.513 188.542Z" fill="#7E87A5"/>
</svg>
